<?xml version="1.0" standalone="no"?>
<!DOCTYPE svg PUBLIC "-//W3C//DTD SVG 20010904//EN"
 "http://www.w3.org/TR/2001/REC-SVG-20010904/DTD/svg10.dtd">
<svg version="1.0" xmlns="http://www.w3.org/2000/svg"
 width="320.000000pt" height="320.000000pt" viewBox="0 0 320.000000 320.000000"
 preserveAspectRatio="xMidYMid meet">
<metadata>
Created by potrace 1.11, written by Peter Selinger 2001-2013
</metadata>
<g transform="translate(0.000000,320.000000) scale(0.100000,-0.100000)"
fill="#000000" stroke="none">
<path d="M1370 3175 c-41 -7 -93 -16 -115 -19 -67 -12 -275 -86 -357 -127
-163 -82 -297 -178 -423 -305 -80 -80 -198 -227 -226 -282 -8 -15 -16 -29 -19
-32 -11 -10 -79 -148 -109 -220 -114 -281 -142 -648 -71 -955 61 -266 218
-551 413 -748 137 -138 255 -226 412 -305 243 -122 465 -175 737 -173 783 3
1440 575 1563 1361 17 107 17 359 -1 467 -91 569 -449 1019 -994 1247 -82 34
-231 72 -368 95 -79 13 -356 10 -442 -4z"/>
</g>
</svg>
