<?xml version="1.0" standalone="no"?>
<!DOCTYPE svg PUBLIC "-//W3C//DTD SVG 20010904//EN"
 "http://www.w3.org/TR/2001/REC-SVG-20010904/DTD/svg10.dtd">
<svg version="1.0" xmlns="http://www.w3.org/2000/svg"
 width="400.000000pt" height="400.000000pt" viewBox="0 0 400.000000 400.000000"
 preserveAspectRatio="xMidYMid meet">
<metadata>
Created by potrace 1.11, written by Peter Selinger 2001-2013
</metadata>
<g transform="translate(0.000000,400.000000) scale(0.100000,-0.100000)"
fill="#000000" stroke="none">
<path d="M1974 3477 c-29 -91 -108 -145 -273 -187 -258 -65 -433 -151 -606
-296 -69 -58 -145 -133 -178 -177 -32 -43 -55 -57 -100 -61 -72 -7 -116 -20
-194 -58 -190 -92 -313 -288 -313 -500 0 -85 29 -199 68 -273 28 -50 129 -159
193 -207 31 -23 38 -36 48 -89 83 -417 384 -797 782 -983 130 -61 266 -100
419 -122 53 -7 292 -8 335 -1 17 3 50 8 75 12 191 29 429 131 593 253 289 218
460 487 547 860 10 44 19 57 54 81 117 81 201 202 236 339 17 67 15 211 -5
278 -26 90 -73 171 -140 239 -98 101 -204 154 -340 171 -52 6 -63 11 -90 43
-72 87 -208 211 -292 268 -160 110 -281 163 -492 218 -74 20 -154 46 -177 60
-48 28 -92 77 -106 117 -12 35 -35 43 -44 15z"/>
</g>
</svg>
