<?xml version="1.0" standalone="no"?>
<!DOCTYPE svg PUBLIC "-//W3C//DTD SVG 20010904//EN"
 "http://www.w3.org/TR/2001/REC-SVG-20010904/DTD/svg10.dtd">
<svg version="1.0" xmlns="http://www.w3.org/2000/svg"
 width="260.000000pt" height="260.000000pt" viewBox="0 0 260.000000 260.000000"
 preserveAspectRatio="xMidYMid meet">
<metadata>
Created by potrace 1.11, written by Peter Selinger 2001-2013
</metadata>
<g transform="translate(0.000000,260.000000) scale(0.100000,-0.100000)"
fill="#000000" stroke="none">
<path d="M634 2438 c-12 -5 -27 -20 -33 -32 -13 -27 -33 -77 -37 -94 -1 -7
-17 -38 -35 -70 -27 -48 -47 -78 -106 -157 -38 -50 -72 -104 -77 -122 -4 -13
-10 -23 -14 -24 -4 0 -22 -2 -40 -4 -42 -4 -111 -45 -138 -82 -41 -57 -54
-132 -35 -201 6 -21 6 -32 -1 -32 -5 0 -8 -6 -5 -12 2 -7 -3 -18 -11 -24 -7
-5 -15 -22 -15 -37 -1 -15 -5 -27 -8 -27 -6 0 -22 -43 -24 -65 0 -5 -4 -16 -8
-22 -5 -7 -6 -13 -3 -13 3 0 1 -12 -4 -26 -9 -24 -22 -141 -23 -204 -1 -65 14
-194 25 -213 6 -12 11 -23 10 -24 -1 -2 -2 -4 -1 -5 0 -2 2 -15 4 -31 2 -15
11 -41 19 -58 9 -17 14 -34 12 -38 -17 -26 -12 -138 9 -216 8 -29 30 -75 37
-75 4 0 8 -6 8 -14 0 -8 7 -22 16 -30 8 -9 13 -16 10 -16 -4 0 6 -14 21 -31
16 -17 28 -36 28 -42 0 -6 -20 -15 -44 -19 -123 -21 -210 -140 -155 -213 15
-20 27 -20 567 -20 459 0 662 5 662 15 0 1 11 3 25 5 76 10 159 29 228 51 88
29 220 93 249 120 11 11 36 32 56 48 67 52 184 249 202 341 2 11 4 20 5 20 2
0 18 83 35 181 2 17 7 127 10 244 6 267 11 317 38 381 18 43 74 109 93 109 8
0 14 4 14 9 0 8 23 14 94 28 82 15 196 -100 196 -197 0 -106 -73 -178 -169
-167 -112 13 -144 159 -43 198 31 12 66 -7 83 -44 16 -38 54 -48 74 -21 15 21
14 28 -3 69 -22 49 -69 80 -124 81 -106 4 -176 -68 -175 -178 0 -50 5 -64 36
-105 43 -57 81 -80 141 -87 102 -12 193 41 242 141 25 52 30 71 26 115 -10
127 -107 247 -221 275 -41 10 -111 4 -161 -14 -62 -22 -138 -90 -164 -146 -31
-68 -39 -88 -41 -112 0 -8 -7 -15 -15 -15 -16 0 -29 27 -19 42 3 7 1 8 -5 4
-8 -4 -12 0 -12 11 0 38 -80 182 -142 256 -17 20 -23 35 -18 42 13 16 13 165
0 165 -3 0 -12 16 -19 37 -27 74 -128 144 -212 148 -25 1 -50 5 -56 8 -7 4
-14 3 -18 -2 -3 -5 -14 -8 -25 -6 -11 2 -20 0 -20 -4 0 -5 -12 -12 -26 -15
-19 -5 -33 -2 -48 12 -37 33 -258 152 -283 152 -3 0 -19 6 -36 14 -183 80
-343 114 -403 84z"/>
</g>
</svg>
