<?xml version="1.0" standalone="no"?>
<!DOCTYPE svg PUBLIC "-//W3C//DTD SVG 20010904//EN"
 "http://www.w3.org/TR/2001/REC-SVG-20010904/DTD/svg10.dtd">
<svg version="1.0" xmlns="http://www.w3.org/2000/svg"
 width="260.000000pt" height="260.000000pt" viewBox="0 0 260.000000 260.000000"
 preserveAspectRatio="xMidYMid meet">
<metadata>
Created by potrace 1.11, written by Peter Selinger 2001-2013
</metadata>
<g transform="translate(0.000000,260.000000) scale(0.100000,-0.100000)"
fill="#000000" stroke="none">
<path d="M874 2046 c-12 -8 -31 -41 -43 -73 -12 -32 -47 -94 -79 -138 -31 -44
-63 -92 -71 -107 -9 -18 -24 -27 -50 -32 -49 -8 -96 -51 -110 -101 -10 -41 -9
-83 3 -103 4 -7 2 -12 -4 -12 -6 0 -8 -4 -5 -10 3 -5 2 -10 -3 -10 -6 0 -13
-12 -18 -27 -4 -16 -8 -30 -9 -33 -30 -100 -35 -131 -35 -225 0 -66 4 -108 16
-147 3 -10 8 -30 10 -45 3 -16 9 -31 13 -35 4 -5 4 -29 1 -55 -9 -74 36 -202
85 -243 24 -20 18 -27 -27 -34 -49 -8 -118 -72 -118 -110 0 -52 5 -53 410 -54
401 0 465 4 604 44 180 50 285 132 353 274 49 101 63 183 68 395 5 188 17 268
46 298 10 12 19 24 19 28 0 9 59 37 92 43 72 13 156 -77 145 -157 -12 -85
-107 -128 -162 -72 -30 29 -33 75 -7 98 29 26 59 21 77 -13 16 -31 38 -39 52
-17 21 33 -9 84 -58 99 -49 14 -85 4 -120 -35 -29 -32 -34 -57 -23 -114 18
-90 127 -131 216 -81 105 59 115 199 22 293 -64 64 -137 75 -220 34 -54 -26
-88 -66 -111 -129 -20 -57 -31 -63 -39 -20 -4 17 -10 30 -15 30 -5 0 -8 3 -7
8 4 11 -26 72 -34 72 -5 0 -8 7 -8 15 0 8 -5 15 -11 15 -5 0 -7 5 -4 10 3 6
-1 13 -9 16 -9 3 -16 12 -16 20 0 8 -4 14 -9 14 -5 0 -6 15 -2 33 21 92 -39
193 -134 224 -34 11 -97 8 -124 -6 -14 -8 -29 -2 -69 25 -95 64 -313 150 -407
160 -36 4 -56 1 -71 -10z"/>
</g>
</svg>
