<?xml version="1.0" standalone="no"?>
<!DOCTYPE svg PUBLIC "-//W3C//DTD SVG 20010904//EN"
 "http://www.w3.org/TR/2001/REC-SVG-20010904/DTD/svg10.dtd">
<svg version="1.0" xmlns="http://www.w3.org/2000/svg"
 width="400.000000pt" height="400.000000pt" viewBox="0 0 400.000000 400.000000"
 preserveAspectRatio="xMidYMid meet">
<metadata>
Created by potrace 1.11, written by Peter Selinger 2001-2013
</metadata>
<g transform="translate(0.000000,400.000000) scale(0.100000,-0.100000)"
fill="#000000" stroke="none">
<path d="M1699 3005 c-3 -2 -63 -7 -134 -9 -166 -7 -194 -11 -280 -36 -93 -28
-176 -75 -295 -165 -213 -162 -317 -348 -239 -431 48 -52 159 -102 329 -150
139 -39 153 -45 207 -85 101 -75 118 -100 128 -186 3 -26 8 -56 11 -65 3 -10
1 -18 -5 -18 -6 0 -11 7 -11 15 0 21 -112 129 -150 145 -64 27 -140 -16 -160
-89 -9 -33 -7 -200 3 -246 5 -20 16 -97 23 -149 2 -16 8 -43 14 -61 6 -18 12
-41 14 -51 2 -10 14 -55 26 -99 12 -44 23 -87 25 -96 2 -9 8 -34 14 -55 18
-63 15 -74 -19 -74 -44 0 -160 -45 -188 -73 l-25 -25 94 4 c52 2 139 6 194 9
55 3 170 8 255 11 85 3 168 7 184 8 l28 4 -28 -24 c-16 -13 -27 -24 -24 -24 3
0 100 -1 215 -1 344 1 605 11 725 28 25 4 50 8 55 8 244 27 313 60 383 186 11
20 23 50 26 65 23 115 26 151 21 253 -4 63 -8 126 -10 140 -1 14 -6 62 -11
106 -4 44 -8 82 -9 85 -1 3 -5 28 -10 55 -4 28 -11 55 -15 60 -4 6 -8 28 -9
51 -1 22 -5 62 -9 90 -9 55 -7 193 2 239 4 17 20 58 37 92 26 50 42 68 88 97
31 20 70 39 88 42 80 15 59 70 -26 68 -37 -1 -62 -10 -110 -39 -118 -73 -174
-189 -175 -365 0 -105 9 -237 18 -275 18 -68 25 -107 30 -160 3 -33 8 -71 10
-85 7 -40 18 -189 20 -260 1 -58 -3 -92 -18 -155 -2 -11 -5 -25 -5 -31 -1 -6
-15 -32 -32 -58 -42 -63 -99 -91 -204 -102 -27 -2 -55 -6 -61 -8 -7 -3 -11 43
-12 142 -1 236 -12 443 -27 520 -4 21 -9 48 -12 62 -23 133 -64 254 -121 359
-30 56 -141 210 -180 250 -11 12 -8 18 21 42 38 31 69 95 62 128 -5 28 -41 78
-65 91 -25 14 -80 12 -107 -3 -12 -7 -33 -27 -47 -45 l-24 -33 -12 36 c-18 54
-110 148 -172 175 -29 12 -57 23 -63 25 -5 1 -27 5 -47 9 -26 6 -39 15 -44 30
-10 32 -45 67 -89 87 -41 19 -58 23 -66 14z m62 -82 c34 -20 33 -34 -4 -44
-28 -8 -47 11 -47 45 0 21 15 20 51 -1z m-244 -35 c29 -32 45 -66 34 -72 -5
-3 -14 8 -20 25 -6 17 -15 28 -21 24 -13 -8 -13 -52 0 -60 6 -4 -1 -16 -17
-28 -33 -25 -83 -79 -83 -89 0 -18 -16 -6 -17 12 -2 26 -41 75 -72 89 -19 9
-28 8 -47 -4 -13 -8 -24 -16 -24 -18 -11 -63 -10 -84 6 -121 20 -47 62 -96 81
-96 9 0 12 -8 8 -22 -11 -53 -13 -93 -6 -107 14 -27 22 -73 13 -67 -6 3 -26 8
-46 12 -45 7 -115 31 -223 78 -46 19 -83 33 -83 30 0 -2 -14 2 -30 11 -30 15
-30 16 -15 45 8 16 71 85 138 153 108 109 133 128 211 166 140 68 179 75 213
39z"/>
</g>
</svg>
